<svg width="100%" height="100%" viewBox="0 0 600 640"
     xmlns="http://www.w3.org/2000/svg"
     xmlns:xlink="http://www.w3.org/1999/xlink">

  <desc>
    Masked Hexagons
    
    Jay Nick
    STEAMcoded.org
  </desc>

  <defs>
    <pattern id="lines" width="600" height="600" viewBox="0 0 600 600" patternUnits="userSpaceOnUse">
      <path d="M0,300l600,0" transform="rotate(-60,300,300)" style="stroke:black;stroke-width:600px;stroke-dasharray:45,41.6;stroke-dashoffset:25" />
    </pattern>

    <symbol id="hexagon" viewBox="0 0 600 600" overflow="visible">
      <path d="M300,0L559.8,150L559.8,450L300,600L40.2,450L40.2,150L300,0z"/>
    </symbol>
    <mask id="m1">
      <rect width="100%" height="100%" style="fill:white;stroke:white;stroke-width:20px;" />
      <use width="300" height="300" xlink:href="#hexagon" transform="rotate(60,300,300) translate(150,0)" style="fill:#000;stroke:#000;stroke-width:10px;" />
      <circle cx="300" cy="300" r="3" style="fill:#fff;" />
    </mask>
  </defs>

  <rect width="100%" height="100%" style="fill:none;stroke:red;display:none;" />
  <g transform="translate(0,20)">
    <rect width="600" height="600" transform="translate(150,0) scale(0.5)" style="fill:url(#lines);stroke:blue;display:none;" />
    <g id="hexagons" style="fill:green;stroke:white;stroke-width:25px;mask:url(#m1);">
      <use width="300" height="300" xlink:href="#hexagon" transform="translate(150,0)" style="fill:url(#lines);" />
    </g>
    <use width="300" height="300" xlink:href="#hexagons" transform="rotate(60,300,300)" />
    <use width="300" height="300" xlink:href="#hexagons" transform="rotate(120,300,300)" />
    <use width="300" height="300" xlink:href="#hexagons" transform="rotate(180,300,300)" />
    <use width="300" height="300" xlink:href="#hexagons" transform="rotate(240,300,300)" />
    <use width="300" height="300" xlink:href="#hexagons" transform="rotate(300,300,300)" />
  </g>
  
</svg>